<svg width="24" height="24" viewBox="0 0 24 24" fill="none" xmlns="http://www.w3.org/2000/svg">
<g clip-path="url(#clip0_325_8)">
<path fill-rule="evenodd" clip-rule="evenodd" d="M17.0033 9C18.3294 9.0004 19.601 9.52757 20.5384 10.4655C21.4758 11.4035 22.0022 12.6754 22.0018 14.0015C22.0014 15.3276 21.4743 16.5992 20.5363 17.5366C19.5983 18.474 18.3264 19.0004 17.0003 19H9.50034C8.12465 18.9995 6.77559 18.6207 5.60076 17.9049C4.42594 17.1892 3.47061 16.1641 2.83929 14.9418C2.20798 13.7195 1.92501 12.3471 2.02134 10.9748C2.11767 9.60251 2.58959 8.28313 3.38547 7.16103C4.18135 6.03893 5.27052 5.15735 6.53382 4.61274C7.79712 4.06813 9.18587 3.88147 10.5481 4.07319C11.9104 4.26491 13.1937 4.82762 14.2576 5.69975C15.3215 6.57187 16.1251 7.71983 16.5803 9.018C16.7207 9.00615 16.8625 9.00015 17.0033 9ZM4.00034 11.5C3.9989 10.2092 4.45149 8.95907 5.27889 7.96836C6.10628 6.97764 7.25576 6.30949 8.52612 6.08086C9.79648 5.85223 11.1068 6.07767 12.2277 6.71775C13.3486 7.35782 14.2086 8.37173 14.6573 9.582C13.8285 10.0226 13.1397 10.6867 12.6693 11.499C12.5365 11.7287 12.5003 12.0017 12.5687 12.2581C12.6372 12.5145 12.8047 12.7331 13.0343 12.866C13.264 12.9989 13.5371 13.0351 13.7934 12.9666C14.0498 12.8982 14.2685 12.7307 14.4013 12.501C14.6653 12.0452 15.0443 11.6667 15.5003 11.4033C15.9564 11.1399 16.4737 11.0009 17.0003 11C17.3943 11 17.7844 11.0776 18.1484 11.2284C18.5124 11.3791 18.8431 11.6001 19.1217 11.8787C19.4002 12.1573 19.6212 12.488 19.772 12.852C19.9227 13.2159 20.0003 13.606 20.0003 14C20.0003 14.394 19.9227 14.7841 19.772 15.1481C19.6212 15.512 19.4002 15.8427 19.1217 16.1213C18.8431 16.3999 18.5124 16.6209 18.1484 16.7716C17.7844 16.9224 17.3943 17 17.0003 17H9.50034C8.04165 17 6.6427 16.4205 5.61125 15.3891C4.5798 14.3576 4.00034 12.9587 4.00034 11.5Z" fill="white"/>
</g>
<defs>
<clipPath id="clip0_325_8">
<rect width="24" height="24" fill="white"/>
</clipPath>
</defs>
</svg>
