<svg width="24" height="24" viewBox="0 0 24 24" fill="none" xmlns="http://www.w3.org/2000/svg">
<g clip-path="url(#clip0_326_20)">
<path d="M14.4856 3.1429C14.7409 3.21469 14.9571 3.3849 15.0869 3.61612C15.2167 3.84734 15.2493 4.12063 15.1776 4.3759L10.7476 20.1639C10.7122 20.2904 10.6521 20.4086 10.571 20.5119C10.4898 20.6151 10.3891 20.7014 10.2746 20.7658C10.1602 20.8301 10.0341 20.8713 9.9037 20.8869C9.77329 20.9026 9.64109 20.8924 9.51462 20.8569C9.38816 20.8214 9.26992 20.7614 9.16665 20.6803C9.06338 20.5991 8.97711 20.4984 8.91276 20.3839C8.84841 20.2694 8.80724 20.1434 8.7916 20.013C8.77596 19.8826 8.78616 19.7504 8.82162 19.6239L13.2516 3.8359C13.2871 3.70931 13.3471 3.59096 13.4283 3.4876C13.5095 3.38425 13.6103 3.29792 13.7249 3.23355C13.8396 3.16919 13.9657 3.12805 14.0963 3.1125C14.2268 3.09694 14.3591 3.10727 14.4856 3.1429ZM7.20662 7.0499C7.39409 7.23742 7.49941 7.49173 7.49941 7.7569C7.49941 8.02206 7.39409 8.27637 7.20662 8.46389L3.67162 11.9999L7.20662 15.5349C7.29953 15.6277 7.37325 15.738 7.42355 15.8593C7.47386 15.9806 7.49978 16.1107 7.49983 16.242C7.49987 16.3734 7.47405 16.5035 7.42382 16.6248C7.3736 16.7462 7.29997 16.8565 7.20712 16.9494C7.11428 17.0423 7.00404 17.116 6.88271 17.1663C6.76138 17.2166 6.63132 17.2426 6.49998 17.2426C6.36863 17.2426 6.23856 17.2168 6.11719 17.1666C5.99582 17.1164 5.88553 17.0427 5.79262 16.9499L1.54962 12.7069C1.36215 12.5194 1.25684 12.2651 1.25684 11.9999C1.25684 11.7347 1.36215 11.4804 1.54962 11.2929L5.79262 7.0499C5.98015 6.86242 6.23446 6.75711 6.49962 6.75711C6.76479 6.75711 7.01909 6.86242 7.20662 7.0499ZM16.7926 8.46389C16.6971 8.37165 16.6209 8.2613 16.5685 8.1393C16.5161 8.0173 16.4885 7.88608 16.4874 7.7533C16.4862 7.62052 16.5115 7.48884 16.5618 7.36594C16.6121 7.24304 16.6863 7.13139 16.7802 7.0375C16.8741 6.94361 16.9858 6.86935 17.1087 6.81907C17.2316 6.76879 17.3632 6.74349 17.496 6.74464C17.6288 6.7458 17.76 6.77338 17.882 6.82579C18.004 6.8782 18.1144 6.95439 18.2066 7.0499L22.4496 11.2929C22.6371 11.4804 22.7424 11.7347 22.7424 11.9999C22.7424 12.2651 22.6371 12.5194 22.4496 12.7069L18.2066 16.9499C18.019 17.1374 17.7645 17.2427 17.4993 17.2426C17.234 17.2425 16.9796 17.137 16.7921 16.9494C16.6046 16.7618 16.4993 16.5073 16.4994 16.242C16.4995 15.9768 16.605 15.7224 16.7926 15.5349L20.3276 11.9999L16.7926 8.46389Z" fill="white"/>
</g>
<defs>
<clipPath id="clip0_326_20">
<rect width="24" height="24" fill="white"/>
</clipPath>
</defs>
</svg>
