<svg width="24" height="24" viewBox="0 0 24 24" fill="none" xmlns="http://www.w3.org/2000/svg">
<g clip-path="url(#clip0_326_10)">
<path d="M19.9996 17.0001C20.2544 17.0004 20.4996 17.098 20.6849 17.273C20.8703 17.4479 20.9818 17.6871 20.9967 17.9415C21.0117 18.196 20.9289 18.4465 20.7653 18.642C20.6017 18.8374 20.3697 18.963 20.1166 18.9931L19.9996 19.0001H11.9996C11.7447 18.9998 11.4995 18.9022 11.3142 18.7273C11.1289 18.5523 11.0173 18.3132 11.0024 18.0587C10.9875 17.8043 11.0702 17.5537 11.2338 17.3583C11.3974 17.1628 11.6295 17.0372 11.8826 17.0071L11.9996 17.0001H19.9996ZM3.63556 5.63612C3.80775 5.46395 4.03685 5.36052 4.27988 5.34523C4.5229 5.32995 4.76316 5.40387 4.95556 5.55312L5.04956 5.63612L10.7066 11.2931C10.8787 11.4653 10.9822 11.6944 10.9974 11.9374C11.0127 12.1805 10.9388 12.4207 10.7896 12.6131L10.7066 12.7071L5.04956 18.3641C4.8696 18.5435 4.62813 18.6476 4.37418 18.6554C4.12023 18.6631 3.87285 18.5739 3.68228 18.4059C3.49172 18.2378 3.37225 18.0036 3.34816 17.7506C3.32407 17.4977 3.39715 17.2451 3.55256 17.0441L3.63556 16.9501L8.58556 12.0001L3.63556 7.05012C3.44809 6.8626 3.34277 6.60829 3.34277 6.34312C3.34277 6.07796 3.44809 5.82365 3.63556 5.63612Z" fill="white"/>
</g>
<defs>
<clipPath id="clip0_326_10">
<rect width="24" height="24" fill="white"/>
</clipPath>
</defs>
</svg>
