<svg width="24" height="24" viewBox="0 0 24 24" fill="none" xmlns="http://www.w3.org/2000/svg">
<g clip-path="url(#clip0_326_25)">
<path fill-rule="evenodd" clip-rule="evenodd" d="M15.2801 2.30708C15.4492 2.13134 15.6768 2.02347 15.9199 2.00376C16.163 1.98405 16.4049 2.05387 16.6001 2.20008L20.6001 5.20008C20.7243 5.29323 20.8251 5.41401 20.8946 5.55287C20.964 5.69172 21.0001 5.84484 21.0001 6.00008V18.0001C21.0001 18.1553 20.964 18.3084 20.8946 18.4473C20.8251 18.5862 20.7243 18.7069 20.6001 18.8001L16.6001 21.8001C16.4049 21.9463 16.163 22.0161 15.9199 21.9964C15.6768 21.9767 15.4492 21.8688 15.2801 21.6931L8.92313 15.0831L5.63313 17.7741C5.46741 17.9097 5.26254 17.9885 5.04869 17.9989C4.83483 18.0093 4.62326 17.9509 4.44513 17.8321L2.94513 16.8321C2.82343 16.7509 2.72103 16.644 2.64513 16.519C2.56924 16.394 2.5217 16.2538 2.50587 16.1084C2.49004 15.9629 2.50631 15.8158 2.55352 15.6774C2.60074 15.5389 2.67775 15.4125 2.77913 15.3071L5.96013 12.0001L2.78013 8.69308C2.67875 8.58763 2.60174 8.46123 2.55452 8.32278C2.50731 8.18434 2.49104 8.03722 2.50687 7.8918C2.5227 7.74639 2.57024 7.60621 2.64613 7.48117C2.72203 7.35612 2.82443 7.24925 2.94613 7.16808L4.44613 6.16808C4.62426 6.04929 4.83583 5.99082 5.04969 6.00126C5.26354 6.0117 5.46841 6.0905 5.63413 6.22608L8.92413 8.91808L15.2801 2.30708ZM10.4761 10.1881L11.1111 10.7081L15.0001 7.52608V5.48308L10.4761 10.1881ZM17.0001 5.00008V19.0001L19.0001 17.5001V6.50008L17.0001 5.00008ZM15.0001 18.5171V16.4741L5.78813 8.93708L15.0001 18.5171ZM15.0001 13.8901V10.1101L12.6901 12.0001L15.0001 13.8901ZM7.34613 13.4431L5.78813 15.0631L7.53213 13.6361L7.34613 13.4431Z" fill="#09244B"/>
</g>
<defs>
<clipPath id="clip0_326_25">
<rect width="24" height="24" fill="white"/>
</clipPath>
</defs>
</svg>
