<svg width="24" height="24" viewBox="0 0 24 24" fill="none" xmlns="http://www.w3.org/2000/svg">
<g clip-path="url(#clip0_333_12)">
<path fill-rule="evenodd" clip-rule="evenodd" d="M12.4765 4.54605C12.4012 4.37856 12.3729 4.1937 12.3948 4.01135C12.4166 3.82899 12.4878 3.65605 12.6006 3.51114C12.7135 3.36622 12.8637 3.25481 13.0351 3.18889C13.2065 3.12298 13.3927 3.10506 13.5735 3.13705C15.7911 3.52846 17.7814 4.73696 19.1516 6.52403C20.5217 8.31109 21.1721 10.5469 20.9745 12.79C20.7768 15.0332 19.7454 17.1208 18.0839 18.6407C16.4224 20.1606 14.2514 21.0025 11.9995 21.0001C7.56554 21.0001 3.88154 17.7941 3.13654 13.5741C3.10454 13.3932 3.12247 13.207 3.18838 13.0356C3.2543 12.8642 3.36571 12.714 3.51062 12.6012C3.65554 12.4883 3.82848 12.4172 4.01083 12.3953C4.19319 12.3734 4.37805 12.4017 4.54554 12.4771C5.65543 12.9753 6.89057 13.1244 8.08714 12.9045C9.28371 12.6846 10.3852 12.1062 11.2454 11.2459C12.1057 10.3857 12.6841 9.28422 12.904 8.08765C13.1239 6.89108 12.9748 5.65595 12.4765 4.54605ZM14.8805 5.61805C15.1028 6.8838 15.0168 8.18447 14.63 9.40997C14.2431 10.6355 13.5667 11.7497 12.6579 12.6585C11.7492 13.5672 10.635 14.2436 9.40946 14.6305C8.18396 15.0174 6.88329 15.1033 5.61754 14.8811C6.27691 16.3392 7.41587 17.5275 8.84477 18.248C10.2737 18.9686 11.9063 19.178 13.4707 18.8413C15.0352 18.5046 16.4372 17.6421 17.4431 16.3975C18.4491 15.153 18.9984 13.6013 18.9995 12.0011C18.9998 10.6535 18.6113 9.33442 17.8805 8.2022C17.1497 7.06999 16.1087 6.17271 14.8805 5.61805ZM5.56454 7.71605L5.62854 7.85605C5.90139 8.41977 6.33084 8.89297 6.86554 9.21905L6.96554 9.27805C6.97593 9.284 6.98456 9.29259 6.99056 9.30295C6.99657 9.31331 6.99973 9.32508 6.99973 9.33705C6.99973 9.34902 6.99657 9.36079 6.99056 9.37115C6.98456 9.38151 6.97593 9.3901 6.96554 9.39605L6.86554 9.45405C6.3307 9.7804 5.90123 10.254 5.62854 10.8181L5.56454 10.9581C5.55899 10.9707 5.54989 10.9814 5.53835 10.9889C5.52681 10.9965 5.51332 11.0005 5.49954 11.0005C5.48575 11.0005 5.47227 10.9965 5.46073 10.9889C5.44918 10.9814 5.44008 10.9707 5.43454 10.9581L5.37054 10.8181C5.09785 10.254 4.66838 9.7804 4.13354 9.45405L4.03354 9.39605C4.02315 9.3901 4.01452 9.38151 4.00851 9.37115C4.00251 9.36079 3.99935 9.34902 3.99935 9.33705C3.99935 9.32508 4.00251 9.31331 4.00851 9.30295C4.01452 9.29259 4.02315 9.284 4.03354 9.27805L4.13354 9.21905C4.66801 8.89255 5.09712 8.41901 5.36954 7.85505L5.43354 7.71505C5.43908 7.70243 5.44818 7.6917 5.45973 7.68416C5.47127 7.67663 5.48475 7.67262 5.49854 7.67262C5.51232 7.67262 5.52581 7.67663 5.53735 7.68416C5.54889 7.6917 5.55799 7.70243 5.56354 7.71505L5.56454 7.71605ZM8.39654 2.85705C8.43654 2.76705 8.56254 2.76705 8.60254 2.85705L8.70454 3.07905C9.13873 3.97739 9.82271 4.73151 10.6745 5.25105L10.8315 5.34305C10.8484 5.35239 10.8625 5.36608 10.8723 5.3827C10.8821 5.39932 10.8873 5.41826 10.8873 5.43755C10.8873 5.45684 10.8821 5.47578 10.8723 5.4924C10.8625 5.50902 10.8484 5.52271 10.8315 5.53205L10.6735 5.62405C9.75108 6.18703 9.02741 7.02397 8.60354 8.01805C8.59472 8.03816 8.58024 8.05527 8.56186 8.06729C8.54348 8.0793 8.522 8.0857 8.50004 8.0857C8.47808 8.0857 8.4566 8.0793 8.43821 8.06729C8.41983 8.05527 8.40535 8.03816 8.39654 8.01805L8.29454 7.79605C7.86035 6.89771 7.17637 6.14359 6.32454 5.62405L6.16654 5.53205C6.14966 5.52271 6.13559 5.50902 6.12579 5.4924C6.11599 5.47578 6.11082 5.45684 6.11082 5.43755C6.11082 5.41826 6.11599 5.39932 6.12579 5.3827C6.13559 5.36608 6.14966 5.35239 6.16654 5.34305L6.32454 5.25105C7.17637 4.73151 7.86035 3.97739 8.29454 3.07905L8.39654 2.85705Z" fill="#09244B"/>
</g>
<defs>
<clipPath id="clip0_333_12">
<rect width="24" height="24" fill="white"/>
</clipPath>
</defs>
</svg>
