<svg width="24" height="24" viewBox="0 0 24 24" fill="none" xmlns="http://www.w3.org/2000/svg">
<path d="M12 2.25C12.3691 2.25 12.6848 2.51744 12.7456 2.88153L13.6862 8.61258L19.1185 9.5044C19.4826 9.56517 19.75 9.88093 19.75 10.25C19.75 10.6191 19.4826 10.9348 19.1185 10.9956L13.6862 11.8874L12.7456 17.6185C12.6848 17.9826 12.3691 18.25 12 18.25C11.6309 18.25 11.3152 17.9826 11.2544 17.6185L10.3138 11.8874L4.88153 10.9956C4.51744 10.9348 4.25 10.6191 4.25 10.25C4.25 9.88093 4.51744 9.56517 4.88153 9.5044L10.3138 8.61258L11.2544 2.88153C11.3152 2.51744 11.6309 2.25 12 2.25ZM18.25 14.25C18.5379 14.25 18.7866 14.4548 18.8423 14.7372L19.1612 16.3388L20.7628 16.6577C21.0452 16.7134 21.25 16.9621 21.25 17.25C21.25 17.5379 21.0452 17.7866 20.7628 17.8423L19.1612 18.1612L18.8423 19.7628C18.7866 20.0452 18.5379 20.25 18.25 20.25C17.9621 20.25 17.7134 20.0452 17.6577 19.7628L17.3388 18.1612L15.7372 17.8423C15.4548 17.7866 15.25 17.5379 15.25 17.25C15.25 16.9621 15.4548 16.7134 15.7372 16.6577L17.3388 16.3388L17.6577 14.7372C17.7134 14.4548 17.9621 14.25 18.25 14.25Z" fill="#09244B"/>
</svg>
