<svg width="24" height="24" viewBox="0 0 24 24" fill="none" xmlns="http://www.w3.org/2000/svg">
<g clip-path="url(#clip0_330_22)">
<path d="M5 5V19H19V5H5ZM14.5 15H15.5V13H14.5V15ZM8.5 15H9.5V9H8.5V15ZM17.5 15.5C17.5 15.8978 17.342 16.2794 17.0607 16.5607C16.7794 16.842 16.3978 17 16 17H14C13.6022 17 13.2206 16.842 12.9393 16.5607C12.658 16.2794 12.5 15.8978 12.5 15.5V12.5C12.5 12.1022 12.658 11.7206 12.9393 11.4393C13.2206 11.158 13.6022 11 14 11H16C16.3978 11 16.7794 11.158 17.0607 11.4393C17.342 11.7206 17.5 12.1022 17.5 12.5V15.5ZM11.5 15.5C11.5 15.8978 11.342 16.2794 11.0607 16.5607C10.7794 16.842 10.3978 17 10 17H8C7.60218 17 7.22064 16.842 6.93934 16.5607C6.65804 16.2794 6.5 15.8978 6.5 15.5V8.5C6.5 8.10218 6.65804 7.72064 6.93934 7.43934C7.22064 7.15804 7.60218 7 8 7H10C10.3978 7 10.7794 7.15804 11.0607 7.43934C11.342 7.72064 11.5 8.10218 11.5 8.5V15.5ZM21 19C21 19.5304 20.7893 20.0391 20.4142 20.4142C20.0391 20.7893 19.5304 21 19 21H5C4.46957 21 3.96086 20.7893 3.58579 20.4142C3.21071 20.0391 3 19.5304 3 19V5C3 4.46957 3.21071 3.96086 3.58579 3.58579C3.96086 3.21071 4.46957 3 5 3H19C19.5304 3 20.0391 3.21071 20.4142 3.58579C20.7893 3.96086 21 4.46957 21 5V19Z" fill="#09244B"/>
</g>
<defs>
<clipPath id="clip0_330_22">
<rect width="24" height="24" fill="white"/>
</clipPath>
</defs>
</svg>
